<svg width="212" height="170" viewBox="0 0 212 170" fill="none" xmlns="http://www.w3.org/2000/svg">
<circle cx="8" cy="62" r="8" fill="#D9D9D9"/>
<circle cx="8" cy="62" r="8" fill="#D9D9D9"/>
<circle cx="8" cy="37" r="8" fill="#5318FD"/>
<circle cx="64" cy="137" r="8" fill="#D9D9D9"/>
<circle cx="120" cy="62" r="8" fill="#D9D9D9"/>
<circle cx="120" cy="62" r="8" fill="#D9D9D9"/>
<circle cx="120" cy="37" r="8" fill="#5318FD"/>
<circle cx="120" cy="137" r="8" fill="#D9D9D9"/>
<circle cx="176" cy="62" r="8" fill="#D9D9D9"/>
<circle cx="176" cy="62" r="8" fill="#D9D9D9"/>
<circle cx="176" cy="37" r="8" fill="#D9D9D9"/>
<circle cx="176" cy="137" r="8" fill="#D9D9D9"/>
<circle cx="8" cy="8" r="8" fill="#D9D9D9"/>
<circle cx="8" cy="8" r="8" fill="#D9D9D9"/>
<circle cx="8" cy="112" r="8" fill="#D9D9D9"/>
<circle cx="64" cy="8" r="8" fill="#D9D9D9"/>
<circle cx="64" cy="8" r="8" fill="#D9D9D9"/>
<circle cx="64" cy="112" r="8" fill="#D9D9D9"/>
<circle cx="64" cy="162" r="8" fill="#D9D9D9"/>
<circle cx="120" cy="8" r="8" fill="#D9D9D9"/>
<circle cx="120" cy="8" r="8" fill="#D9D9D9"/>
<circle cx="120" cy="112" r="8" fill="#D9D9D9"/>
<circle cx="120" cy="162" r="8" fill="#D9D9D9"/>
<circle cx="176" cy="8" r="8" fill="#D9D9D9"/>
<circle cx="176" cy="8" r="8" fill="#D9D9D9"/>
<circle cx="176" cy="162" r="8" fill="#D9D9D9"/>
<circle cx="92" cy="137" r="8" fill="#D9D9D9"/>
<circle cx="148" cy="62" r="8" fill="#D9D9D9"/>
<circle cx="148" cy="62" r="8" fill="#D9D9D9"/>
<circle cx="148" cy="37" r="8" fill="#D9D9D9"/>
<circle cx="148" cy="137" r="8" fill="#D9D9D9"/>
<circle cx="204" cy="62" r="8" fill="#D9D9D9"/>
<circle cx="204" cy="62" r="8" fill="#D9D9D9"/>
<circle cx="204" cy="37" r="8" fill="#D9D9D9"/>
<circle cx="204" cy="137" r="8" fill="#D9D9D9"/>
<circle cx="36" cy="8" r="8" fill="#D9D9D9"/>
<circle cx="36" cy="8" r="8" fill="#D9D9D9"/>
<circle cx="36" cy="112" r="8" fill="#D9D9D9"/>
<circle cx="92" cy="8" r="8" fill="#D9D9D9"/>
<circle cx="92" cy="8" r="8" fill="#D9D9D9"/>
<circle cx="92" cy="112" r="8" fill="#D9D9D9"/>
<circle cx="92" cy="162" r="8" fill="#5318FD"/>
<circle cx="148" cy="8" r="8" fill="#D9D9D9"/>
<circle cx="148" cy="8" r="8" fill="#D9D9D9"/>
<circle cx="148" cy="162" r="8" fill="#D9D9D9"/>
<circle cx="204" cy="8" r="8" fill="#D9D9D9"/>
<circle cx="204" cy="8" r="8" fill="#5318FD"/>
<circle cx="204" cy="112" r="8" fill="#D9D9D9"/>
<circle cx="204" cy="162" r="8" fill="#5318FD"/>
<circle cx="8" cy="87" r="8" fill="#5318FD"/>
<circle cx="64" cy="87" r="8" fill="#D9D9D9"/>
<circle cx="120" cy="87" r="8" fill="#D9D9D9"/>
<circle cx="36" cy="87" r="8" fill="#D9D9D9"/>
<circle cx="92" cy="87" r="8" fill="#5318FD"/>
<circle cx="204" cy="87" r="8" fill="#5318FD"/>
<circle cx="92" cy="62" r="8" fill="#D9D9D9"/>
<circle cx="92" cy="37" r="8" fill="#D9D9D9"/>
</svg>
