<svg width="377" height="205" viewBox="0 0 377 205" fill="none" xmlns="http://www.w3.org/2000/svg">
<rect x="30.94" width="315.273" height="193.182" rx="3" fill="black"/>
<path d="M34.0309 7.72727H343.122V185.455H34.0309V7.72727Z" fill="white"/>
<path d="M1.00008 200.254H375.576" stroke="black" stroke-width="0.7"/>
<path d="M374.576 192.763H2C1.44772 192.763 1 193.21 1 193.763V199.524C1 199.959 1.28137 200.345 1.69621 200.475C9.11442 202.812 13.9118 203.717 23.4746 204H345.61C357.755 203.59 364.291 202.779 374.795 200.43C375.251 200.328 375.576 199.923 375.576 199.455V193.763C375.576 193.21 375.129 192.763 374.576 192.763Z" stroke="black"/>
<path d="M214.509 192.763H162.068C163.043 194.715 163.833 195.56 165.814 196.508H210.763C212.34 195.369 213.101 194.546 214.509 192.763Z" stroke="black" stroke-width="0.5"/>
</svg>
